<svg width="17" height="19" viewBox="0 0 17 19" fill="none" xmlns="http://www.w3.org/2000/svg">
<rect width="16" height="16" rx="8" transform="matrix(1 0.000825538 -0.00128991 0.999999 1 1.5)" fill="#F55123"/>
<path d="M6.65998 12.275L6.66171 10.9322C7.13002 11.2744 7.67667 11.4457 8.30167 11.4462C8.69555 11.4466 9.00165 11.3622 9.21997 11.1931C9.44154 11.024 9.55252 10.7881 9.55291 10.4854C9.55332 10.1729 9.41691 9.93186 9.14369 9.76236C8.87373 9.59287 8.50111 9.50792 8.02585 9.50753L7.37644 9.50699L7.37796 8.32535L7.97855 8.32585C8.89001 8.3266 9.34613 8.02424 9.34691 7.41878C9.34764 6.84912 8.99808 6.564 8.29821 6.56342C7.82946 6.56303 7.37353 6.71402 6.93043 7.01639L6.93206 5.75663C7.42391 5.50964 7.99699 5.38641 8.65129 5.38695C9.36743 5.38754 9.92387 5.54914 10.3206 5.87173C10.7206 6.19432 10.9202 6.61278 10.9196 7.12711C10.9184 8.04182 10.4538 8.61435 9.52573 8.84471L9.5257 8.86912C10.0204 8.93138 10.4108 9.11236 10.6969 9.41208C10.983 9.70854 11.1257 10.0732 11.1252 10.5062C11.1243 11.1605 10.8844 11.6779 10.4054 12.0583C9.92637 12.4388 9.26532 12.6287 8.42222 12.628C7.69956 12.6274 7.11215 12.5097 6.65998 12.275Z" fill="white"/>
</svg>
